<svg width="100%" height="100%" viewBox="0 0 380 380" fill="none" xmlns="http://www.w3.org/2000/svg"><circle cx="190" cy="190" r="190" fill="#9287FF"></circle><mask id="mask0" mask-type="alpha" maskUnits="userSpaceOnUse" x="0" y="0" width="380" height="380"><circle cx="190" cy="190" r="190" fill="#FFEDEF"></circle></mask><g mask="url(#mask0)"><g clip-path="url(#clip0)"><path d="M244 362.5C229.6 342.5 218.333 303.834 217 284.5L148.5 255L120 362.5H244Z" fill="#F9C9B6" stroke="black" stroke-width="4"></path><mask id="mask1" mask-type="alpha" maskUnits="userSpaceOnUse" x="120" y="255" width="124" height="118"><path d="M244 372.5C229.6 352.5 218.333 303.834 217 284.5L148.5 255L120 372.5H244Z" fill="#F9C9B6"></path></mask><g mask="url(#mask1)"><g style="mix-blend-mode: multiply;"><ellipse cx="214" cy="253" rx="59" ry="54" fill="black"></ellipse></g></g><mask id="path-6-inside-1" fill="white"><path fill-rule="evenodd" clip-rule="evenodd" d="M273.886 193.917C273.859 193.801 273.831 193.685 273.803 193.569C273.776 193.454 273.748 193.338 273.719 193.222L257.323 124.786C257.306 124.718 257.29 124.65 257.274 124.582C257.258 124.514 257.242 124.446 257.225 124.379L257.152 124.075L257.151 124.076C246.933 82.6308 205.156 57.1472 163.582 67.1081C122.008 77.0689 96.3155 118.717 105.988 160.293L105.986 160.293L122.978 231.211L122.992 231.208C133.594 272.112 175.062 297.149 216.329 287.261C257.597 277.374 283.216 236.264 274.131 194.996L274.144 194.993L273.886 193.917Z"></path></mask><path fill-rule="evenodd" clip-rule="evenodd" d="M273.886 193.917C273.859 193.801 273.831 193.685 273.803 193.569C273.776 193.454 273.748 193.338 273.719 193.222L257.323 124.786C257.306 124.718 257.29 124.65 257.274 124.582C257.258 124.514 257.242 124.446 257.225 124.379L257.152 124.075L257.151 124.076C246.933 82.6308 205.156 57.1472 163.582 67.1081C122.008 77.0689 96.3155 118.717 105.988 160.293L105.986 160.293L122.978 231.211L122.992 231.208C133.594 272.112 175.062 297.149 216.329 287.261C257.597 277.374 283.216 236.264 274.131 194.996L274.144 194.993L273.886 193.917Z" fill="#F9C9B6"></path><path d="M273.886 193.917L269.992 194.831L269.994 194.84L269.996 194.849L273.886 193.917ZM273.719 193.222L269.83 194.154L269.832 194.163L269.834 194.172L273.719 193.222ZM257.323 124.786L253.43 125.708L253.433 125.718L257.323 124.786ZM257.225 124.379L253.335 125.311L253.338 125.321L257.225 124.379ZM257.152 124.075L261.042 123.143L260.111 119.255L256.222 120.185L257.152 124.075ZM257.151 124.076L253.267 125.033L254.218 128.89L258.081 127.966L257.151 124.076ZM163.582 67.1081L162.65 63.2182L163.582 67.1081ZM105.988 160.293L106.922 164.182L110.784 163.255L109.884 159.386L105.988 160.293ZM105.986 160.293L105.052 156.404L101.165 157.337L102.096 161.225L105.986 160.293ZM122.978 231.211L119.088 232.143L120.02 236.035L123.911 235.101L122.978 231.211ZM122.992 231.208L126.864 230.204L125.878 226.401L122.058 227.318L122.992 231.208ZM216.329 287.261L215.397 283.371H215.397L216.329 287.261ZM274.131 194.996L273.2 191.106L269.381 192.021L270.225 195.856L274.131 194.996ZM274.144 194.993L275.075 198.883L278.966 197.951L278.034 194.061L274.144 194.993ZM277.78 193.002C277.751 192.881 277.722 192.759 277.693 192.637L269.914 194.502C269.94 194.611 269.966 194.721 269.992 194.831L277.78 193.002ZM277.693 192.637C277.664 192.516 277.635 192.395 277.605 192.273L269.834 194.172C269.861 194.281 269.887 194.391 269.914 194.502L277.693 192.637ZM253.433 125.718L269.83 194.154L277.609 192.29L261.212 123.854L253.433 125.718ZM261.215 123.863C261.198 123.793 261.181 123.722 261.164 123.65L253.384 125.514C253.4 125.578 253.415 125.643 253.43 125.708L261.215 123.863ZM261.164 123.65C261.147 123.579 261.13 123.508 261.113 123.436L253.338 125.321C253.353 125.385 253.369 125.449 253.384 125.514L261.164 123.65ZM253.262 125.007L253.335 125.311L261.115 123.447L261.042 123.143L253.262 125.007ZM258.081 127.966L258.083 127.966L256.222 120.185L256.221 120.185L258.081 127.966ZM261.035 123.118C250.291 79.5398 206.364 52.7447 162.65 63.2182L164.514 70.998C203.949 61.5498 243.575 85.7219 253.267 125.033L261.035 123.118ZM162.65 63.2182C118.936 73.6917 91.9216 117.484 102.092 161.199L109.884 159.386C100.709 119.951 125.08 80.4461 164.514 70.998L162.65 63.2182ZM106.92 164.183L106.922 164.182L105.054 156.403L105.052 156.404L106.92 164.183ZM126.868 230.279L109.876 159.361L102.096 161.225L119.088 232.143L126.868 230.279ZM122.058 227.318L122.044 227.322L123.911 235.101L123.925 235.097L122.058 227.318ZM119.12 232.211C130.268 275.223 173.869 301.548 217.261 291.151L215.397 283.371C176.254 292.75 136.92 269.002 126.864 230.204L119.12 232.211ZM217.261 291.151C260.653 280.755 287.591 237.53 278.038 194.136L270.225 195.856C278.842 234.999 254.541 273.993 215.397 283.371L217.261 291.151ZM273.212 191.103L273.2 191.106L275.063 198.886L275.075 198.883L273.212 191.103ZM269.996 194.849L270.254 195.925L278.034 194.061L277.776 192.985L269.996 194.849Z" fill="black" mask="url(#path-6-inside-1)"></path><g><!----></g></g><g><path d="M190.001 227.165C194.941 233.612 202.428 240.754 213.977 239.125C225.526 237.496 230.664 229.53 229.149 223.078" stroke="black" stroke-width="4"></path></g><g><path d="M219 132.214C224.667 129.548 238 127.114 246 138.714" stroke="black" stroke-width="4" stroke-linecap="round"></path><path d="M143.579 157.521C145.65 151.61 153.261 140.396 167.142 142.822" stroke="black" stroke-width="4" stroke-linecap="round"></path><path d="M146.074 151.458L139.926 146.031" stroke="black" stroke-width="4" stroke-linecap="round"></path><path d="M242.961 133.157L249.109 127.73" stroke="black" stroke-width="4" stroke-linecap="round"></path><path d="M152.523 145.814L148.477 138.682" stroke="black" stroke-width="4" stroke-linecap="round"></path><path d="M235.512 129.513L239.559 122.381" stroke="black" stroke-width="4" stroke-linecap="round"></path><path d="M160.599 142.201L158.398 134.301" stroke="black" stroke-width="4" stroke-linecap="round"></path><path d="M226.436 128.9L228.637 121" stroke="black" stroke-width="4" stroke-linecap="round"></path></g><g><ellipse cx="206.854" cy="89.1803" rx="6.85759" ry="18.4393" transform="rotate(117 206.854 89.1803)" fill="rgba(255,255,255,0.3)"></ellipse></g><g><ellipse cx="168.117" cy="167.927" rx="9" ry="10" transform="rotate(-6.77646 168.117 167.927)" fill="black"></ellipse><ellipse cx="232.149" cy="157.923" rx="9" ry="10" transform="rotate(-6.27568 232.149 157.923)" fill="black"></ellipse></g><g><circle cx="234.5" cy="159" r="26" stroke="black" stroke-width="4"></circle><circle cx="167.5" cy="168" r="26" stroke="black" stroke-width="4"></circle><path d="M209.5 166C209.5 163.878 208.657 161.843 207.157 160.343C205.657 158.843 203.622 158 201.5 158C199.378 158 197.343 158.843 195.843 160.343C194.343 161.843 193.5 163.878 193.5 166" stroke="black" stroke-width="4"></path><path d="M142 170L112 175.5" stroke="black" stroke-width="4"></path><!----></g><g><path d="M203.13 169.093C205.079 182.957 213.541 192.876 213.541 192.876C213.541 192.876 210.91 199.305 200.729 198.716" stroke="#171921" stroke-width="4"></path></g><g><path d="M131 182.249V181.13L130.046 180.545C126.312 178.254 121.772 177 117.08 177C111.44 177 106.159 178.747 102.398 182.295C98.5942 185.882 96.5421 191.127 97.0869 197.666C97.6179 204.038 99.7569 208.727 103.305 211.843C103.013 212.842 102.927 213.92 103.062 215.053C103.452 218.322 105.104 220.677 107.657 222.128C110.091 223.511 113.206 224 116.524 224C122.003 224 126.808 221.053 130.466 217.111L131 216.536V215.751V182.249Z" stroke="black" stroke-width="4"></path><path d="M136.972 197.984C137.043 197.332 137.08 196.67 137.08 196C137.08 185.783 127.573 179 117.08 179C106.587 179 98.0801 185.5 99.08 197.5C99.6364 204.177 102.026 208.572 105.731 211.217C105.142 212.241 104.885 213.444 105.048 214.817C105.677 220.098 110.186 222 116.524 222C127.629 222 136.416 207.953 136.972 197.984Z" fill="#F9C9B6" fill-rule="evenodd" clip-rule="evenodd"></path><path d="M121.5 187.5C117.5 185.667 108.7 184.7 105.5 195.5" stroke="black" stroke-width="4"></path><path d="M111 188C113.167 189.833 117.3 195.5 116.5 203.5" stroke="black" stroke-width="4"></path></g><g><path d="M114 214C127.255 214 138 224.745 138 238C138 251.255 127.255 262 114 262C100.745 262 90 251.255 90 238C90 231.609 93.5 226.5 96.5715 221.5L97.5 220" stroke="#F4D150" stroke-width="4"></path></g><g><!----><!----><path d="M323.366 382.863H50.4563C50.4907 382.793 50.5255 382.722 50.5604 382.651C55.1052 373.395 63.4899 356.319 74.4025 341.041C80.5961 332.37 87.5303 324.387 94.9416 318.772C102.354 313.156 110.061 310.04 117.892 310.726C132.946 312.043 146.355 320.285 159.817 328.56C161.092 329.344 162.368 330.129 163.646 330.908C178.131 339.735 193.005 347.931 209.365 344.345C214.899 343.131 218.629 340.535 220.976 337.18C223.29 333.873 224.122 330.029 224.266 326.517C224.41 322.999 223.871 319.674 223.311 317.256C223.049 316.126 222.779 315.179 222.564 314.484C226.189 310.835 230.027 308.71 233.989 307.753C238.284 306.716 242.876 307.016 247.707 308.445C257.437 311.323 267.847 318.697 278.007 328.179C296.621 345.552 313.7 369.323 323.366 382.863Z" fill="#77311D" stroke="black" stroke-width="4.27431"></path></g></g><defs><clipPath id="clip0"><rect width="200" height="320" fill="white" transform="translate(90 43)"></rect></clipPath></defs></svg>
