<svg width="100%" height="100%" viewBox="0 0 380 380" fill="none" xmlns="http://www.w3.org/2000/svg"><circle cx="190" cy="190" r="190" fill="#506AF4"></circle><mask id="mask0" mask-type="alpha" maskUnits="userSpaceOnUse" x="0" y="0" width="380" height="380"><circle cx="190" cy="190" r="190" fill="#FFEDEF"></circle></mask><g mask="url(#mask0)"><g clip-path="url(#clip0)"><path d="M244 362.5C229.6 342.5 218.333 303.834 217 284.5L148.5 255L120 362.5H244Z" fill="#F9C9B6" stroke="black" stroke-width="4"></path><mask id="mask1" mask-type="alpha" maskUnits="userSpaceOnUse" x="120" y="255" width="124" height="118"><path d="M244 372.5C229.6 352.5 218.333 303.834 217 284.5L148.5 255L120 372.5H244Z" fill="#F9C9B6"></path></mask><g mask="url(#mask1)"><g style="mix-blend-mode: multiply;"><ellipse cx="214" cy="253" rx="59" ry="54" fill="black"></ellipse></g></g><mask id="path-6-inside-1" fill="white"><path fill-rule="evenodd" clip-rule="evenodd" d="M273.886 193.917C273.859 193.801 273.831 193.685 273.803 193.569C273.776 193.454 273.748 193.338 273.719 193.222L257.323 124.786C257.306 124.718 257.29 124.65 257.274 124.582C257.258 124.514 257.242 124.446 257.225 124.379L257.152 124.075L257.151 124.076C246.933 82.6308 205.156 57.1472 163.582 67.1081C122.008 77.0689 96.3155 118.717 105.988 160.293L105.986 160.293L122.978 231.211L122.992 231.208C133.594 272.112 175.062 297.149 216.329 287.261C257.597 277.374 283.216 236.264 274.131 194.996L274.144 194.993L273.886 193.917Z"></path></mask><path fill-rule="evenodd" clip-rule="evenodd" d="M273.886 193.917C273.859 193.801 273.831 193.685 273.803 193.569C273.776 193.454 273.748 193.338 273.719 193.222L257.323 124.786C257.306 124.718 257.29 124.65 257.274 124.582C257.258 124.514 257.242 124.446 257.225 124.379L257.152 124.075L257.151 124.076C246.933 82.6308 205.156 57.1472 163.582 67.1081C122.008 77.0689 96.3155 118.717 105.988 160.293L105.986 160.293L122.978 231.211L122.992 231.208C133.594 272.112 175.062 297.149 216.329 287.261C257.597 277.374 283.216 236.264 274.131 194.996L274.144 194.993L273.886 193.917Z" fill="#F9C9B6"></path><path d="M273.886 193.917L269.992 194.831L269.994 194.84L269.996 194.849L273.886 193.917ZM273.719 193.222L269.83 194.154L269.832 194.163L269.834 194.172L273.719 193.222ZM257.323 124.786L253.43 125.708L253.433 125.718L257.323 124.786ZM257.225 124.379L253.335 125.311L253.338 125.321L257.225 124.379ZM257.152 124.075L261.042 123.143L260.111 119.255L256.222 120.185L257.152 124.075ZM257.151 124.076L253.267 125.033L254.218 128.89L258.081 127.966L257.151 124.076ZM163.582 67.1081L162.65 63.2182L163.582 67.1081ZM105.988 160.293L106.922 164.182L110.784 163.255L109.884 159.386L105.988 160.293ZM105.986 160.293L105.052 156.404L101.165 157.337L102.096 161.225L105.986 160.293ZM122.978 231.211L119.088 232.143L120.02 236.035L123.911 235.101L122.978 231.211ZM122.992 231.208L126.864 230.204L125.878 226.401L122.058 227.318L122.992 231.208ZM216.329 287.261L215.397 283.371H215.397L216.329 287.261ZM274.131 194.996L273.2 191.106L269.381 192.021L270.225 195.856L274.131 194.996ZM274.144 194.993L275.075 198.883L278.966 197.951L278.034 194.061L274.144 194.993ZM277.78 193.002C277.751 192.881 277.722 192.759 277.693 192.637L269.914 194.502C269.94 194.611 269.966 194.721 269.992 194.831L277.78 193.002ZM277.693 192.637C277.664 192.516 277.635 192.395 277.605 192.273L269.834 194.172C269.861 194.281 269.887 194.391 269.914 194.502L277.693 192.637ZM253.433 125.718L269.83 194.154L277.609 192.29L261.212 123.854L253.433 125.718ZM261.215 123.863C261.198 123.793 261.181 123.722 261.164 123.65L253.384 125.514C253.4 125.578 253.415 125.643 253.43 125.708L261.215 123.863ZM261.164 123.65C261.147 123.579 261.13 123.508 261.113 123.436L253.338 125.321C253.353 125.385 253.369 125.449 253.384 125.514L261.164 123.65ZM253.262 125.007L253.335 125.311L261.115 123.447L261.042 123.143L253.262 125.007ZM258.081 127.966L258.083 127.966L256.222 120.185L256.221 120.185L258.081 127.966ZM261.035 123.118C250.291 79.5398 206.364 52.7447 162.65 63.2182L164.514 70.998C203.949 61.5498 243.575 85.7219 253.267 125.033L261.035 123.118ZM162.65 63.2182C118.936 73.6917 91.9216 117.484 102.092 161.199L109.884 159.386C100.709 119.951 125.08 80.4461 164.514 70.998L162.65 63.2182ZM106.92 164.183L106.922 164.182L105.054 156.403L105.052 156.404L106.92 164.183ZM126.868 230.279L109.876 159.361L102.096 161.225L119.088 232.143L126.868 230.279ZM122.058 227.318L122.044 227.322L123.911 235.101L123.925 235.097L122.058 227.318ZM119.12 232.211C130.268 275.223 173.869 301.548 217.261 291.151L215.397 283.371C176.254 292.75 136.92 269.002 126.864 230.204L119.12 232.211ZM217.261 291.151C260.653 280.755 287.591 237.53 278.038 194.136L270.225 195.856C278.842 234.999 254.541 273.993 215.397 283.371L217.261 291.151ZM273.212 191.103L273.2 191.106L275.063 198.886L275.075 198.883L273.212 191.103ZM269.996 194.849L270.254 195.925L278.034 194.061L277.776 192.985L269.996 194.849Z" fill="black" mask="url(#path-6-inside-1)"></path><g><path d="M270.126 194.455C279.615 234.059 255.201 273.857 215.597 283.345C192.29 288.93 168.916 282.772 151.692 268.687C134.5 252.801 130.5 201.301 126.692 176.95C140.692 208.451 176.316 210.895 210.192 204.951C238.692 199.951 261.491 198.951 261.491 159.951C263.376 162.567 268.469 187.538 270.126 194.455Z" fill="#65473E"></path></g></g><g><path d="M179.5 220.5C182 237.5 210.5 245.5 236.5 226" stroke="black" stroke-width="4"></path></g><g><path d="M219 132.214C224.667 129.548 238 127.114 246 138.714" stroke="black" stroke-width="4" stroke-linecap="round"></path><path d="M143.579 157.521C145.65 151.61 153.261 140.396 167.142 142.822" stroke="black" stroke-width="4" stroke-linecap="round"></path></g><g><ellipse cx="206.854" cy="89.1803" rx="6.85759" ry="18.4393" transform="rotate(117 206.854 89.1803)" fill="rgba(255,255,255,0.3)"></ellipse></g><g><circle cx="167.24" cy="159.239" r="12" transform="rotate(-6.27568 167.24 159.239)" fill="#D2EFF3"></circle><ellipse cx="168.53" cy="168.402" rx="9" ry="13.5" transform="rotate(-6.77646 168.53 168.402)" fill="black"></ellipse><circle cx="231.019" cy="150.61" r="12" transform="rotate(-6.27568 231.019 150.61)" fill="#D2EFF3"></circle><ellipse cx="232.531" cy="158.402" rx="9" ry="13.5" transform="rotate(-6.27568 232.531 158.402)" fill="black"></ellipse></g><g><!----><!----></g><g><path d="M203.13 169.093C205.079 182.957 213.541 192.876 213.541 192.876C213.541 192.876 210.91 199.305 200.729 198.716" stroke="#171921" stroke-width="4"></path></g><g><path d="M124.5 180.176C122.17 179.408 119.655 179 117.08 179C106.587 179 98.0801 185.5 99.08 197.5C100.122 210 107.587 214.5 118.08 214.5C119.248 214.5 120.391 214.397 121.5 214.201C122.711 213.987 123.881 213.661 125 213.235" stroke="black" stroke-width="8"></path><path d="M125.5 213.036C123.22 213.979 120.713 214.5 118.08 214.5C107.587 214.5 100.122 210 99.08 197.5C98.0801 185.5 106.587 179 117.08 179C120.217 179 123.267 179.606 126 180.73L125.5 213.036Z" fill="#F9C9B6"></path><path d="M121.5 187.5C117.5 185.667 108.7 184.7 105.5 195.5" stroke="black" stroke-width="4"></path><path d="M111 188C113.167 189.833 117.3 195.5 116.5 203.5" stroke="black" stroke-width="4"></path></g><g><!----></g><g><path d="M189.771 359.578C189.771 359.578 189.771 359.578 191 358L189.771 359.578L191.493 360.919L192.679 359.087L192.679 359.087L192.681 359.084L192.69 359.07L192.731 359.007C192.742 358.99 192.755 358.971 192.769 358.949C192.803 358.897 192.847 358.832 192.9 358.753C193.05 358.528 193.275 358.195 193.57 357.77C194.158 356.919 195.023 355.702 196.118 354.246C198.312 351.332 201.416 347.482 205.071 343.718C208.737 339.945 212.898 336.318 217.198 333.793C221.514 331.26 225.777 329.949 229.733 330.483C272.171 336.205 303.402 355.002 323.674 383.001H50.3745C66.6742 353.659 89.8579 334.983 127.445 326.413C129.046 326.047 131.224 326.158 133.947 326.791C136.642 327.418 139.715 328.519 143.028 329.976C149.655 332.889 157.052 337.136 164.004 341.536C170.945 345.93 177.39 350.443 182.104 353.86C184.459 355.567 186.379 357 187.709 358.004C188.374 358.506 188.891 358.901 189.241 359.169C189.416 359.304 189.55 359.407 189.639 359.475L189.739 359.553L189.764 359.572L189.77 359.577L189.771 359.578Z" fill="#9287FF" stroke="black" stroke-width="4"></path><path d="M115.613 329.085L120.779 309.853C120.989 309.074 121.996 308.854 122.54 309.449C137.403 325.714 156.16 325.076 162.385 324.33C163.23 324.228 163.892 325.153 163.495 325.906L150.338 350.859C150.136 351.241 149.724 351.452 149.3 351.364C145.352 350.541 125.677 345.732 115.729 329.867C115.583 329.635 115.542 329.35 115.613 329.085Z" fill="#9287FF" stroke="black" stroke-width="4"></path><path d="M246.195 328.981L234.615 309.499C234.222 308.837 233.253 308.848 232.834 309.494C227.097 318.33 217.202 322.4 213.742 323.602C213.12 323.819 212.835 324.558 213.171 325.125L226.673 347.94C226.875 348.281 227.255 348.465 227.636 348.357C229.771 347.749 237.096 344.685 246.182 330.021C246.378 329.706 246.385 329.3 246.195 328.981Z" fill="#9287FF" stroke="black" stroke-width="4"></path><path d="M172.5 346.5L163.5 325L156.5 340L172.5 346.5Z" fill="black" stroke="black" stroke-width="4" stroke-linejoin="round"></path><path d="M204 345.5L213 324L220 339L204 345.5Z" fill="black" stroke="black" stroke-width="4" stroke-linejoin="round"></path><path d="M133.5 306L121.5 309L131.5 315.5L133.5 306Z" fill="black" stroke="black" stroke-width="4" stroke-linejoin="round"></path><path d="M223 306L234 309L227 315.5L223 306Z" fill="black" stroke="black" stroke-width="4" stroke-linejoin="round"></path><!----><!----></g></g><defs><clipPath id="clip0"><rect width="200" height="320" fill="white" transform="translate(90 43)"></rect></clipPath></defs></svg>
