<svg width="100%" height="100%" viewBox="0 0 380 380" fill="none" xmlns="http://www.w3.org/2000/svg"><circle cx="190" cy="190" r="190" fill="#74D153"></circle><mask id="mask0" mask-type="alpha" maskUnits="userSpaceOnUse" x="0" y="0" width="380" height="380"><circle cx="190" cy="190" r="190" fill="#FFEDEF"></circle></mask><g mask="url(#mask0)"><g clip-path="url(#clip0)"><path d="M244 362.5C229.6 342.5 218.333 303.834 217 284.5L148.5 255L120 362.5H244Z" fill="#F9C9B6" stroke="black" stroke-width="4"></path><mask id="mask1" mask-type="alpha" maskUnits="userSpaceOnUse" x="120" y="255" width="124" height="118"><path d="M244 372.5C229.6 352.5 218.333 303.834 217 284.5L148.5 255L120 372.5H244Z" fill="#F9C9B6"></path></mask><g mask="url(#mask1)"><g style="mix-blend-mode: multiply;"><ellipse cx="214" cy="253" rx="59" ry="54" fill="black"></ellipse></g></g><mask id="path-6-inside-1" fill="white"><path fill-rule="evenodd" clip-rule="evenodd" d="M273.886 193.917C273.859 193.801 273.831 193.685 273.803 193.569C273.776 193.454 273.748 193.338 273.719 193.222L257.323 124.786C257.306 124.718 257.29 124.65 257.274 124.582C257.258 124.514 257.242 124.446 257.225 124.379L257.152 124.075L257.151 124.076C246.933 82.6308 205.156 57.1472 163.582 67.1081C122.008 77.0689 96.3155 118.717 105.988 160.293L105.986 160.293L122.978 231.211L122.992 231.208C133.594 272.112 175.062 297.149 216.329 287.261C257.597 277.374 283.216 236.264 274.131 194.996L274.144 194.993L273.886 193.917Z"></path></mask><path fill-rule="evenodd" clip-rule="evenodd" d="M273.886 193.917C273.859 193.801 273.831 193.685 273.803 193.569C273.776 193.454 273.748 193.338 273.719 193.222L257.323 124.786C257.306 124.718 257.29 124.65 257.274 124.582C257.258 124.514 257.242 124.446 257.225 124.379L257.152 124.075L257.151 124.076C246.933 82.6308 205.156 57.1472 163.582 67.1081C122.008 77.0689 96.3155 118.717 105.988 160.293L105.986 160.293L122.978 231.211L122.992 231.208C133.594 272.112 175.062 297.149 216.329 287.261C257.597 277.374 283.216 236.264 274.131 194.996L274.144 194.993L273.886 193.917Z" fill="#F9C9B6"></path><path d="M273.886 193.917L269.992 194.831L269.994 194.84L269.996 194.849L273.886 193.917ZM273.719 193.222L269.83 194.154L269.832 194.163L269.834 194.172L273.719 193.222ZM257.323 124.786L253.43 125.708L253.433 125.718L257.323 124.786ZM257.225 124.379L253.335 125.311L253.338 125.321L257.225 124.379ZM257.152 124.075L261.042 123.143L260.111 119.255L256.222 120.185L257.152 124.075ZM257.151 124.076L253.267 125.033L254.218 128.89L258.081 127.966L257.151 124.076ZM163.582 67.1081L162.65 63.2182L163.582 67.1081ZM105.988 160.293L106.922 164.182L110.784 163.255L109.884 159.386L105.988 160.293ZM105.986 160.293L105.052 156.404L101.165 157.337L102.096 161.225L105.986 160.293ZM122.978 231.211L119.088 232.143L120.02 236.035L123.911 235.101L122.978 231.211ZM122.992 231.208L126.864 230.204L125.878 226.401L122.058 227.318L122.992 231.208ZM216.329 287.261L215.397 283.371H215.397L216.329 287.261ZM274.131 194.996L273.2 191.106L269.381 192.021L270.225 195.856L274.131 194.996ZM274.144 194.993L275.075 198.883L278.966 197.951L278.034 194.061L274.144 194.993ZM277.78 193.002C277.751 192.881 277.722 192.759 277.693 192.637L269.914 194.502C269.94 194.611 269.966 194.721 269.992 194.831L277.78 193.002ZM277.693 192.637C277.664 192.516 277.635 192.395 277.605 192.273L269.834 194.172C269.861 194.281 269.887 194.391 269.914 194.502L277.693 192.637ZM253.433 125.718L269.83 194.154L277.609 192.29L261.212 123.854L253.433 125.718ZM261.215 123.863C261.198 123.793 261.181 123.722 261.164 123.65L253.384 125.514C253.4 125.578 253.415 125.643 253.43 125.708L261.215 123.863ZM261.164 123.65C261.147 123.579 261.13 123.508 261.113 123.436L253.338 125.321C253.353 125.385 253.369 125.449 253.384 125.514L261.164 123.65ZM253.262 125.007L253.335 125.311L261.115 123.447L261.042 123.143L253.262 125.007ZM258.081 127.966L258.083 127.966L256.222 120.185L256.221 120.185L258.081 127.966ZM261.035 123.118C250.291 79.5398 206.364 52.7447 162.65 63.2182L164.514 70.998C203.949 61.5498 243.575 85.7219 253.267 125.033L261.035 123.118ZM162.65 63.2182C118.936 73.6917 91.9216 117.484 102.092 161.199L109.884 159.386C100.709 119.951 125.08 80.4461 164.514 70.998L162.65 63.2182ZM106.92 164.183L106.922 164.182L105.054 156.403L105.052 156.404L106.92 164.183ZM126.868 230.279L109.876 159.361L102.096 161.225L119.088 232.143L126.868 230.279ZM122.058 227.318L122.044 227.322L123.911 235.101L123.925 235.097L122.058 227.318ZM119.12 232.211C130.268 275.223 173.869 301.548 217.261 291.151L215.397 283.371C176.254 292.75 136.92 269.002 126.864 230.204L119.12 232.211ZM217.261 291.151C260.653 280.755 287.591 237.53 278.038 194.136L270.225 195.856C278.842 234.999 254.541 273.993 215.397 283.371L217.261 291.151ZM273.212 191.103L273.2 191.106L275.063 198.886L275.075 198.883L273.212 191.103ZM269.996 194.849L270.254 195.925L278.034 194.061L277.776 192.985L269.996 194.849Z" fill="black" mask="url(#path-6-inside-1)"></path><g><!----></g></g><g><path d="M179.5 220.5C182 237.5 210.5 245.5 236.5 226" stroke="black" stroke-width="4"></path></g><g><!----></g><g><path d="M45.6007 343.857C45.4477 343.466 45.2377 342.916 44.9828 342.219C44.4158 340.667 43.6268 338.384 42.7485 335.479C40.9915 329.667 38.8806 321.38 37.4734 311.502C34.6563 291.725 34.6769 265.696 45.8698 240.384C47.679 236.292 49.94 232.089 52.3903 227.533C61.8582 209.931 74.1551 187.07 74.1551 145.084C74.1551 114.493 89.0029 88.7305 110.862 70.5692C132.741 52.3915 161.56 41.9109 189.237 41.9109C204.368 41.9109 216.533 43.6444 226.311 49.5511C236.028 55.4212 243.679 65.5978 249.362 83.1322C249.94 84.9168 251.851 86.0074 253.719 85.4015C265.034 81.7304 282.191 85.4361 296.673 94.8904C311.091 104.303 322.289 119.046 322.289 136.814C322.289 152.24 319.647 162.664 317.071 172.815L317.071 172.815C313.952 185.104 310.94 196.974 313.065 216.313C313.774 222.762 315.216 227.336 317.231 231.128C319.213 234.859 321.712 237.747 324.345 240.792L324.405 240.861C330.679 248.113 333.534 254.079 334.455 259.327C335.375 264.562 334.412 269.31 332.623 274.237C331.723 276.712 330.629 279.197 329.47 281.815L329.37 282.041C328.248 284.573 327.074 287.225 326.019 290.016C323.836 295.787 322.133 302.223 322.302 309.851C322.446 316.326 323.594 320.764 325.311 324.122C327.008 327.442 329.199 329.565 331.11 331.416L331.162 331.466C332.905 333.155 334.355 334.577 335.428 336.57C336.387 338.351 337.098 340.702 337.217 344.232C313.208 358.511 289.445 364.413 271.601 366.734C262.565 367.91 255.057 368.166 249.818 368.129C247.199 368.11 245.149 368.019 243.76 367.932C243.271 367.902 242.865 367.872 242.544 367.847C236.393 358.458 230.789 342.969 226.447 327.059C222.226 311.589 219.261 295.968 218.147 285.649C255.22 274.931 278.458 236.667 272.871 197.189C272.864 197.117 272.856 197.067 272.856 197.066C272.848 197.006 272.837 196.938 272.825 196.867C272.813 196.792 272.798 196.703 272.78 196.601C272.764 196.511 272.746 196.41 272.726 196.3C272.641 195.832 272.516 195.172 272.353 194.346C272.028 192.693 271.552 190.358 270.942 187.532C269.722 181.88 267.967 174.249 265.825 166.155C263.685 158.065 261.152 149.485 258.372 141.945C255.613 134.46 252.541 127.802 249.264 123.706L248.967 123.335L248.532 123.146C246.6 122.308 244.593 121.374 242.499 120.399C232.568 115.775 220.659 110.23 205.235 109.62C186.46 108.877 162.684 115.396 130.544 138.706L128.521 140.173L130.467 141.74C146.393 154.574 149.836 171.598 149.1 186.048C148.539 197.077 145.551 206.459 143.865 211.149C142.704 209.452 141.964 207.319 141.408 204.814C141.023 203.083 140.743 201.258 140.449 199.347L140.403 199.045C140.096 197.051 139.769 194.97 139.292 192.961C138.341 188.95 136.732 184.941 133.16 182.102C129.581 179.257 124.364 177.848 116.767 178.272L114.54 178.396L115.005 180.578L126.363 233.891L126.382 233.98L126.41 234.068C130.468 246.93 137.426 258.078 146.323 266.88C146.399 267.007 146.509 267.193 146.65 267.434C146.939 267.928 147.356 268.653 147.861 269.563C148.87 271.384 150.229 273.941 151.621 276.886C154.435 282.835 157.282 290.138 157.83 296.102C158.386 302.154 156.865 309.962 155.123 316.412C154.26 319.605 153.361 322.406 152.677 324.407C152.535 324.824 152.402 325.206 152.281 325.549C147.249 323.144 142.754 323.323 138.902 325.565C134.738 327.989 131.689 332.625 129.419 337.781C125.271 347.202 123.276 359.42 122.355 367.002C97.4846 361.298 78.281 355.507 65.2149 351.107C58.5012 348.846 53.408 346.953 49.9993 345.627C48.2949 344.964 47.0117 344.443 46.1575 344.089C45.9454 344.002 45.7598 343.924 45.6007 343.857Z" stroke="black" stroke-width="3.82184" fill="#F48150"></path></g><g><circle cx="167.24" cy="159.239" r="12" transform="rotate(-6.27568 167.24 159.239)" fill="#D2EFF3"></circle><ellipse cx="168.53" cy="168.402" rx="9" ry="13.5" transform="rotate(-6.77646 168.53 168.402)" fill="black"></ellipse><circle cx="231.019" cy="150.61" r="12" transform="rotate(-6.27568 231.019 150.61)" fill="#D2EFF3"></circle><ellipse cx="232.531" cy="158.402" rx="9" ry="13.5" transform="rotate(-6.27568 232.531 158.402)" fill="black"></ellipse></g><g><circle cx="234.5" cy="159" r="26" stroke="black" stroke-width="4"></circle><circle cx="167.5" cy="168" r="26" stroke="black" stroke-width="4"></circle><path d="M209.5 166C209.5 163.878 208.657 161.843 207.157 160.343C205.657 158.843 203.622 158 201.5 158C199.378 158 197.343 158.843 195.843 160.343C194.343 161.843 193.5 163.878 193.5 166" stroke="black" stroke-width="4"></path><path d="M142 170L112 175.5" stroke="black" stroke-width="4"></path><!----></g><g><path d="M203.687 173.056C203.89 176.899 205.385 185.138 209.735 187.354C215.174 190.124 210.91 199.306 200.729 198.718" stroke="#171921" stroke-width="4"></path></g><g><path d="M131 182.249V181.13L130.046 180.545C126.312 178.254 121.772 177 117.08 177C111.44 177 106.159 178.747 102.398 182.295C98.5942 185.882 96.5421 191.127 97.0869 197.666C97.6179 204.038 99.7569 208.727 103.305 211.843C103.013 212.842 102.927 213.92 103.062 215.053C103.452 218.322 105.104 220.677 107.657 222.128C110.091 223.511 113.206 224 116.524 224C122.003 224 126.808 221.053 130.466 217.111L131 216.536V215.751V182.249Z" stroke="black" stroke-width="4"></path><path d="M136.972 197.984C137.043 197.332 137.08 196.67 137.08 196C137.08 185.783 127.573 179 117.08 179C106.587 179 98.0801 185.5 99.08 197.5C99.6364 204.177 102.026 208.572 105.731 211.217C105.142 212.241 104.885 213.444 105.048 214.817C105.677 220.098 110.186 222 116.524 222C127.629 222 136.416 207.953 136.972 197.984Z" fill="#F9C9B6" fill-rule="evenodd" clip-rule="evenodd"></path><path d="M121.5 187.5C117.5 185.667 108.7 184.7 105.5 195.5" stroke="black" stroke-width="4"></path><path d="M111 188C113.167 189.833 117.3 195.5 116.5 203.5" stroke="black" stroke-width="4"></path></g><g><path d="M114 214C127.255 214 138 224.745 138 238C138 251.255 127.255 262 114 262C100.745 262 90 251.255 90 238C90 231.609 93.5 226.5 96.5715 221.5L97.5 220" stroke="#F4D150" stroke-width="4"></path></g><g><path d="M189.771 359.578C189.771 359.578 189.771 359.578 191 358L189.771 359.578L191.493 360.919L192.679 359.087L192.679 359.087L192.681 359.084L192.69 359.07L192.731 359.007C192.742 358.99 192.755 358.971 192.769 358.949C192.803 358.897 192.847 358.832 192.9 358.753C193.05 358.528 193.275 358.195 193.57 357.77C194.158 356.919 195.023 355.702 196.118 354.246C198.312 351.332 201.416 347.482 205.071 343.718C208.737 339.945 212.898 336.318 217.198 333.793C221.514 331.26 225.777 329.949 229.733 330.483C272.171 336.205 303.402 355.002 323.674 383.001H50.3745C66.6742 353.659 89.8579 334.983 127.445 326.413C129.046 326.047 131.224 326.158 133.947 326.791C136.642 327.418 139.715 328.519 143.028 329.976C149.655 332.889 157.052 337.136 164.004 341.536C170.945 345.93 177.39 350.443 182.104 353.86C184.459 355.567 186.379 357 187.709 358.004C188.374 358.506 188.891 358.901 189.241 359.169C189.416 359.304 189.55 359.407 189.639 359.475L189.739 359.553L189.764 359.572L189.77 359.577L189.771 359.578Z" fill="#F4D150" stroke="black" stroke-width="4"></path><path d="M115.613 329.085L120.779 309.853C120.989 309.074 121.996 308.854 122.54 309.449C137.403 325.714 156.16 325.076 162.385 324.33C163.23 324.228 163.892 325.153 163.495 325.906L150.338 350.859C150.136 351.241 149.724 351.452 149.3 351.364C145.352 350.541 125.677 345.732 115.729 329.867C115.583 329.635 115.542 329.35 115.613 329.085Z" fill="#F4D150" stroke="black" stroke-width="4"></path><path d="M246.195 328.981L234.615 309.499C234.222 308.837 233.253 308.848 232.834 309.494C227.097 318.33 217.202 322.4 213.742 323.602C213.12 323.819 212.835 324.558 213.171 325.125L226.673 347.94C226.875 348.281 227.255 348.465 227.636 348.357C229.771 347.749 237.096 344.685 246.182 330.021C246.378 329.706 246.385 329.3 246.195 328.981Z" fill="#F4D150" stroke="black" stroke-width="4"></path><path d="M172.5 346.5L163.5 325L156.5 340L172.5 346.5Z" fill="black" stroke="black" stroke-width="4" stroke-linejoin="round"></path><path d="M204 345.5L213 324L220 339L204 345.5Z" fill="black" stroke="black" stroke-width="4" stroke-linejoin="round"></path><path d="M133.5 306L121.5 309L131.5 315.5L133.5 306Z" fill="black" stroke="black" stroke-width="4" stroke-linejoin="round"></path><path d="M223 306L234 309L227 315.5L223 306Z" fill="black" stroke="black" stroke-width="4" stroke-linejoin="round"></path><!----><!----></g></g><defs><clipPath id="clip0"><rect width="200" height="320" fill="white" transform="translate(90 43)"></rect></clipPath></defs></svg>
